<svg xmlns="http://www.w3.org/2000/svg" viewBox="0 0 185.75 69.28"><defs><style>.cls-1{fill:#d9674e;}.cls-2{fill:#2e4c73;}.cls-3{fill:#00aeef;}.cls-4{font-size:62px;fill:#231f20;font-family:LeagueGothic-Regular, League Gothic;letter-spacing:0.05em;}</style></defs><g id="Layer_2" data-name="Layer 2"><g id="InWeb_Logo" data-name="InWeb Logo"><path class="cls-1" d="M0,8.22l15.62.23c-4.94,47.48,13.59,45.64,11,46.32C26.64,54.77,4.55,52.85,0,8.22Z"/><path class="cls-2" d="M53.77,8.22l-15.62.23c4.94,47.48-13.59,45.64-11,46.32C27.13,54.77,49.22,52.85,53.77,8.22Z"/><path class="cls-3" d="M30.32,48.39H24s0,0,0,0V8.24l0,0h6.33s0,0,0,0V48.37S30.34,48.39,30.32,48.39Z"/><text class="cls-4" transform="translate(61.13 53.78)">INWEB</text><path class="cls-3" d="M27.16,50.71c2.13-1.43,2.92-2.16,3.17-2.32.48-.29-2.26-.54-6.35,0"/></g></g></svg>